<svg width="48" height="48" viewBox="0 0 48 48" fill="none" xmlns="http://www.w3.org/2000/svg">
<rect width="48" height="48" rx="12" fill="#E2E0E4"/>
<path d="M23.2301 19.2905V15.2815C23.2301 14.8552 23.5701 14.5 24.0001 14.5C24.3851 14.5 24.7113 14.7985 24.763 15.1766L24.7701 15.2815V19.2905L29.55 19.2908C31.93 19.2908 33.8853 21.2398 33.9951 23.6704L34 23.8861V28.9254C34 31.373 32.1127 33.3822 29.768 33.495L29.56 33.5H18.44C16.06 33.5 14.1141 31.5608 14.0048 29.1213L14 28.9047V23.8758C14 21.4281 15.8779 19.4092 18.222 19.2958L18.43 19.2908H23.23V25.6932L21.63 24.041C21.33 23.7312 20.84 23.7312 20.54 24.041C20.39 24.1959 20.32 24.4024 20.32 24.6089C20.32 24.7659 20.3648 24.9295 20.4595 25.0679L20.54 25.1666L23.45 28.1819C23.59 28.3368 23.79 28.4194 24 28.4194C24.1667 28.4194 24.3333 28.362 24.4653 28.2533L24.54 28.1819L27.45 25.1666C27.75 24.8568 27.75 24.3508 27.45 24.041C27.1773 23.7594 26.7475 23.7338 26.4462 23.9642L26.36 24.041L24.77 25.6932V19.2908L23.2301 19.2905Z" fill="#338EF7"/>
</svg>
