<svg width="16" height="16" viewBox="0 0 16 16" fill="none" xmlns="http://www.w3.org/2000/svg">
<path d="M2.66667 4H13.3333M10.6667 4L10.4862 3.45871C10.3114 2.93417 10.224 2.67189 10.0618 2.47799C9.91861 2.30676 9.73472 2.17421 9.527 2.09252C9.29176 2 9.0153 2 8.46238 2H7.53762C6.9847 2 6.70824 2 6.47301 2.09252C6.26528 2.17421 6.08139 2.30676 5.93819 2.47799C5.77604 2.67189 5.68861 2.93417 5.51376 3.45871L5.33333 4M12 4V10.8C12 11.9201 12 12.4802 11.782 12.908C11.5903 13.2843 11.2843 13.5903 10.908 13.782C10.4802 14 9.92011 14 8.8 14H7.2C6.0799 14 5.51984 14 5.09202 13.782C4.7157 13.5903 4.40973 13.2843 4.21799 12.908C4 12.4802 4 11.9201 4 10.8V4M9.33333 6.66667V11.3333M6.66667 6.66667V11.3333" stroke="#807A7A" stroke-linecap="round" stroke-linejoin="round"/>
</svg>
