<svg width="24" height="24" viewBox="0 0 24 24" fill="none" xmlns="http://www.w3.org/2000/svg">
<path d="M3.99999 20V7.1L2.04999 2.85L3.84999 2L6.19999 7.05H17.8L20.15 2L21.95 2.85L20 7.1V20H3.99999ZM9.99999 13H14C14.2833 13 14.521 12.904 14.713 12.712C14.905 12.52 15.0007 12.2827 15 12C14.9993 11.7173 14.9033 11.48 14.712 11.288C14.5207 11.096 14.2833 11 14 11H9.99999C9.71665 11 9.47932 11.096 9.28799 11.288C9.09665 11.48 9.00065 11.7173 8.99999 12C8.99932 12.2827 9.09532 12.5203 9.28799 12.713C9.48065 12.9057 9.71799 13.0013 9.99999 13ZM5.99999 18H18V9.05H5.99999V18Z" fill="#1F2C37"/>
</svg>
