<svg width="69" height="60" viewBox="0 0 69 60" fill="none" xmlns="http://www.w3.org/2000/svg">
<path d="M36.096 14.7737L36.1884 14.8012L36.1925 14.7966C36.631 14.8761 37.0659 14.6136 37.1948 14.1786C38.3686 10.2345 42.0667 7.47913 46.1869 7.47913C46.6746 7.47913 47.0703 7.0835 47.0703 6.59573C47.0703 6.10793 46.6746 5.71232 46.1869 5.71232C41.1232 5.71232 36.868 9.08376 35.5017 13.6751C35.3622 14.1428 35.6287 14.6343 36.096 14.7737Z" fill="#0070F0" stroke="#F9FFF9" stroke-width="0.3"/>
<path d="M56.4501 42.5185H52.0515C51.6467 42.5185 51.3184 42.1902 51.3184 41.7854C51.3184 41.3806 51.6467 41.0523 52.0515 41.0523H56.4501C62.5134 41.0523 67.4468 36.1189 67.4468 30.0556C67.4468 23.9923 62.5134 19.0589 56.4501 19.0589H56.3443C56.1317 19.0589 55.9296 18.9668 55.7903 18.806C55.651 18.6453 55.5882 18.4321 55.6185 18.2216C55.684 17.765 55.717 17.3063 55.717 16.8596C55.717 11.6048 51.4413 7.32912 46.1865 7.32912C44.1422 7.32912 42.1926 7.96797 40.5483 9.17707C40.1869 9.44256 39.6738 9.32474 39.4648 8.92728C34.808 0.0598119 22.6449 -1.131 16.339 6.58293C13.6826 9.83269 12.6388 14.0601 13.4752 18.1803C13.5673 18.6353 13.2191 19.0595 12.7567 19.0595H12.463C6.39965 19.0595 1.46629 23.9929 1.46629 30.0562C1.46629 36.1195 6.39965 41.0528 12.463 41.0528H16.8616C17.2664 41.0528 17.5947 41.3812 17.5947 41.786C17.5947 42.1907 17.2664 42.5191 16.8616 42.5191H12.463C5.59103 42.5191 0 36.9281 0 30.0561C0 23.377 5.2815 17.9079 11.8875 17.6063C11.2669 13.3317 12.4535 9.01994 15.2037 5.65503C21.9551 -2.60451 34.8937 -1.67872 40.3632 7.53126C42.108 6.43735 44.1046 5.86348 46.1862 5.86348C52.5528 5.86348 57.5977 11.2823 57.1562 17.6131C63.7013 17.9802 68.9127 23.4204 68.9127 30.0556C68.9127 36.9281 63.3217 42.5185 56.4498 42.5185L56.4501 42.5185Z" fill="#0070F0"/>
<path d="M15.8799 41.3714C15.8799 51.5606 24.1692 59.8497 34.3582 59.8497C44.5473 59.8497 52.8365 51.5604 52.8365 41.3714C52.8365 31.1823 44.5473 22.8931 34.3582 22.8931C24.1691 22.8931 15.8799 31.1824 15.8799 41.3714ZM17.647 41.3714C17.647 32.1572 25.1438 24.6603 34.3582 24.6603C43.5725 24.6603 51.0694 32.157 51.0694 41.3714C51.0694 50.5857 43.5725 58.0826 34.3582 58.0826C25.144 58.0826 17.647 50.5858 17.647 41.3714Z" fill="#0070F0" stroke="#F9FFF9" stroke-width="0.3"/>
<path d="M34.0068 48.7495C34.0068 49.1288 34.3145 49.4365 34.6938 49.4365C35.0731 49.4365 35.3809 49.1293 35.3809 48.7495V34.7946C35.3809 34.4153 35.0732 34.1076 34.6938 34.1076C34.3145 34.1076 34.0068 34.4153 34.0068 34.7946V48.7495Z" fill="#0070F0" stroke="#483EA8" stroke-width="0.3"/>
<path d="M34.6935 35.7675L30.8856 39.5754L34.6935 35.7675ZM34.6935 35.7675L38.5014 39.5755C38.6354 39.7094 38.8117 39.7767 38.9872 39.7767L34.6935 35.7675ZM29.9139 39.5755C30.1822 39.8438 30.6174 39.8439 30.8855 39.5755L38.9872 39.7767C39.1624 39.7767 39.3388 39.71 39.473 39.5754C39.7414 39.307 39.7414 38.8722 39.473 38.6039L35.1792 34.3101C34.9109 34.0418 34.4757 34.0417 34.2076 34.3101C34.2076 34.3102 34.2076 34.3102 34.2075 34.3102L29.9139 38.6039C29.6455 38.8723 29.6455 39.3071 29.9139 39.5755Z" fill="#0070F0" stroke="#483EA8" stroke-width="0.3"/>
</svg>
