<svg width="48" height="48" viewBox="0 0 48 48" fill="none" xmlns="http://www.w3.org/2000/svg">
<rect width="48" height="48" rx="12" fill="#E2E0E4"/>
<path d="M28.5156 15C31.9644 15 34 16.9846 34 20.3818H29.7689V20.4165C27.8052 20.4165 26.2133 21.9685 26.2133 23.883C26.2133 25.7975 27.8052 27.3495 29.7689 27.3495H34V27.6615C34 31.0154 31.9644 33 28.5156 33H19.4844C16.0356 33 14 31.0154 14 27.6615V20.3385C14 16.9846 16.0356 15 19.4844 15H28.5156ZM33.2533 21.8724C33.6657 21.8724 34 22.1983 34 22.6004V25.131C33.9952 25.5311 33.6637 25.8543 33.2533 25.8589H29.8489C28.8548 25.872 27.9855 25.2084 27.76 24.2643C27.6471 23.6783 27.8056 23.0736 28.1931 22.6122C28.5805 22.1509 29.1573 21.8801 29.7689 21.8724H33.2533ZM30.2489 23.0424H29.92C29.7181 23.0401 29.5236 23.1166 29.38 23.255C29.2364 23.3934 29.1556 23.5821 29.1556 23.779C29.1555 24.1921 29.4964 24.5282 29.92 24.533H30.2489C30.6711 24.533 31.0133 24.1993 31.0133 23.7877C31.0133 23.3761 30.6711 23.0424 30.2489 23.0424ZM24.3822 18.8912H18.7378C18.319 18.8912 17.9782 19.2196 17.9733 19.6278C17.9733 20.0409 18.3142 20.3771 18.7378 20.3818H24.3822C24.8044 20.3818 25.1467 20.0481 25.1467 19.6365C25.1467 19.2249 24.8044 18.8912 24.3822 18.8912Z" fill="#338EF7"/>
</svg>
