<svg width="430" height="169" viewBox="0 0 430 169" fill="none" xmlns="http://www.w3.org/2000/svg">
<path d="M0.741505 133.125C4.97387 128.447 15.5548 124.289 24.0195 145.079C34.6005 171.065 43.0652 177.821 63.1689 150.276C83.2727 122.73 93.8536 115.454 111.841 119.612C129.829 123.77 138.293 117.533 145.171 99.8621C152.049 82.1913 156.281 78.0335 166.333 75.9546C176.385 73.8757 181.675 58.2839 189.082 32.2975C196.489 6.31114 197.018 -5.12287 212.36 4.23222C227.702 13.5873 220.825 95.7046 234.051 101.422C247.277 107.139 253.096 77.5141 268.439 80.1127C283.781 82.7114 290.659 92.5862 297.536 78.0338C304.414 63.4815 314.466 63.4815 334.57 72.8366C354.673 82.1917 366.312 79.593 375.306 60.3631C384.3 41.1332 397.526 5.79173 428.74 28.14" stroke="#338EF7" stroke-width="2"/>
</svg>
