<svg width="48" height="48" viewBox="0 0 48 48" fill="none" xmlns="http://www.w3.org/2000/svg">
<rect width="48" height="48" rx="12" fill="#E2E0E4"/>
<path d="M14 25.2875C14 22.8758 15.8779 20.8963 18.2312 20.7851L18.44 20.7802H23.23V26.8849C23.23 27.3224 23.57 27.6683 24 27.6683C24.385 27.6683 24.7112 27.3776 24.7629 26.9922L24.77 26.8849V20.7802H29.55C31.93 20.7802 33.8853 22.6909 33.9951 25.0945L34 25.3078V30.2628C34 32.6843 32.1221 34.6641 29.7688 34.7753L29.56 34.7802H18.45C16.0603 34.7802 14.1141 32.8599 14.0048 30.4651L14 30.2526V25.2875ZM20.5502 18.24C20.2684 17.9673 20.2428 17.5375 20.4658 17.2362L20.5402 17.15L23.4502 14.23C23.6002 14.08 23.7902 14 24.0002 14C24.1602 14 24.3202 14.0512 24.4495 14.1485L24.5402 14.23L27.4502 17.15C27.6002 17.3 27.6802 17.5 27.6802 17.69C27.6802 17.89 27.6002 18.09 27.4502 18.24C27.1775 18.5127 26.7477 18.5375 26.4464 18.3144L26.3602 18.24L24.7702 16.64V20.78H23.2302V16.64L21.6402 18.24C21.3402 18.54 20.8502 18.54 20.5502 18.24Z" fill="#338EF7"/>
</svg>
