<svg width="16" height="16" viewBox="0 0 16 16" fill="none" xmlns="http://www.w3.org/2000/svg">
<path d="M8 3.66667C8 4.58714 7.25381 5.33333 6.33333 5.33333C5.41286 5.33333 4.66667 4.58714 4.66667 3.66667M8 3.66667C8 2.74619 7.25381 2 6.33333 2C5.41286 2 4.66667 2.74619 4.66667 3.66667M8 3.66667H14M4.66667 3.66667H2M12.6667 8C12.6667 8.92047 11.9205 9.66667 11 9.66667C10.0795 9.66667 9.33333 8.92047 9.33333 8M12.6667 8C12.6667 7.07953 11.9205 6.33333 11 6.33333C10.0795 6.33333 9.33333 7.07953 9.33333 8M12.6667 8H14M9.33333 8H2M6.66667 12.3333C6.66667 13.2538 5.92047 14 5 14C4.07953 14 3.33333 13.2538 3.33333 12.3333M6.66667 12.3333C6.66667 11.4129 5.92047 10.6667 5 10.6667C4.07953 10.6667 3.33333 11.4129 3.33333 12.3333M6.66667 12.3333H14M3.33333 12.3333H2" stroke="#807A7A" stroke-linecap="round" stroke-linejoin="round"/>
</svg>
